<mxfile host="app.diagrams.net" agent="Mozilla/5.0 (X11; Linux x86_64; rv:140.0) Gecko/20100101 Firefox/140.0" version="28.0.6">
  <diagram name="Page-1" id="8ce9d11a-91a2-4d17-14d8-a56ed91bf033">
    <mxGraphModel dx="1181" dy="636" grid="0" gridSize="10" guides="1" tooltips="1" connect="1" arrows="1" fold="1" page="1" pageScale="1" pageWidth="1100" pageHeight="850" background="none" math="0" shadow="0">
      <root>
        <mxCell id="0" />
        <mxCell id="1" parent="0" />
        <mxCell id="cNhxczveaURzyfXHexgx-1" value="&lt;font&gt;Gasification&lt;/font&gt;" style="rounded=1;whiteSpace=wrap;html=1;fontFamily=Inter;fontSize=17;" parent="1" vertex="1">
          <mxGeometry x="230" y="350" width="120" height="60" as="geometry" />
        </mxCell>
        <mxCell id="cNhxczveaURzyfXHexgx-4" value="" style="endArrow=classic;html=1;rounded=0;entryX=0;entryY=0.5;entryDx=0;entryDy=0;fontFamily=Inter;fontSize=17;" parent="1" target="cNhxczveaURzyfXHexgx-1" edge="1">
          <mxGeometry width="50" height="50" relative="1" as="geometry">
            <mxPoint x="80" y="380" as="sourcePoint" />
            <mxPoint x="210" y="377.5" as="targetPoint" />
          </mxGeometry>
        </mxCell>
        <mxCell id="cNhxczveaURzyfXHexgx-5" value="Biomass" style="edgeLabel;html=1;align=center;verticalAlign=middle;resizable=0;points=[];fontFamily=Inter;fontSize=17;" parent="cNhxczveaURzyfXHexgx-4" vertex="1" connectable="0">
          <mxGeometry x="-0.3636" y="1" relative="1" as="geometry">
            <mxPoint x="32" y="1" as="offset" />
          </mxGeometry>
        </mxCell>
        <mxCell id="cNhxczveaURzyfXHexgx-6" value="ASU" style="rounded=1;whiteSpace=wrap;html=1;fontFamily=Inter;fontSize=17;" parent="1" vertex="1">
          <mxGeometry x="144" y="500" width="120" height="60" as="geometry" />
        </mxCell>
        <mxCell id="cNhxczveaURzyfXHexgx-7" value="" style="endArrow=classic;html=1;rounded=0;entryX=-0.019;entryY=0.5;entryDx=0;entryDy=0;entryPerimeter=0;fontFamily=Inter;fontSize=17;" parent="1" target="cNhxczveaURzyfXHexgx-6" edge="1">
          <mxGeometry width="50" height="50" relative="1" as="geometry">
            <mxPoint x="70" y="530" as="sourcePoint" />
            <mxPoint x="54" y="510" as="targetPoint" />
          </mxGeometry>
        </mxCell>
        <mxCell id="cNhxczveaURzyfXHexgx-8" value="Air" style="edgeLabel;html=1;align=center;verticalAlign=middle;resizable=0;points=[];fontFamily=Inter;fontSize=17;" parent="cNhxczveaURzyfXHexgx-7" vertex="1" connectable="0">
          <mxGeometry x="-0.1422" y="-1" relative="1" as="geometry">
            <mxPoint x="9" y="-1" as="offset" />
          </mxGeometry>
        </mxCell>
        <mxCell id="cNhxczveaURzyfXHexgx-9" value="" style="endArrow=classic;html=1;rounded=0;exitX=1.006;exitY=0.339;exitDx=0;exitDy=0;exitPerimeter=0;entryX=0.75;entryY=1;entryDx=0;entryDy=0;fontFamily=Inter;fontSize=17;" parent="1" source="cNhxczveaURzyfXHexgx-6" target="cNhxczveaURzyfXHexgx-1" edge="1">
          <mxGeometry width="50" height="50" relative="1" as="geometry">
            <mxPoint x="290" y="530" as="sourcePoint" />
            <mxPoint x="380" y="520" as="targetPoint" />
            <Array as="points">
              <mxPoint x="320" y="520" />
            </Array>
          </mxGeometry>
        </mxCell>
        <mxCell id="cNhxczveaURzyfXHexgx-10" value="O2" style="edgeLabel;html=1;align=center;verticalAlign=middle;resizable=0;points=[];fontFamily=Inter;fontSize=17;" parent="cNhxczveaURzyfXHexgx-9" vertex="1" connectable="0">
          <mxGeometry x="-0.0889" y="1" relative="1" as="geometry">
            <mxPoint x="1" y="-14" as="offset" />
          </mxGeometry>
        </mxCell>
        <mxCell id="cNhxczveaURzyfXHexgx-11" value="" style="endArrow=classic;html=1;rounded=0;exitX=1.022;exitY=0.661;exitDx=0;exitDy=0;exitPerimeter=0;fontFamily=Inter;entryX=-0.029;entryY=0.674;entryDx=0;entryDy=0;entryPerimeter=0;fontSize=17;" parent="1" source="cNhxczveaURzyfXHexgx-6" target="cNhxczveaURzyfXHexgx-23" edge="1">
          <mxGeometry width="50" height="50" relative="1" as="geometry">
            <mxPoint x="284" y="610" as="sourcePoint" />
            <mxPoint x="354" y="540" as="targetPoint" />
            <Array as="points" />
          </mxGeometry>
        </mxCell>
        <mxCell id="cNhxczveaURzyfXHexgx-12" value="N2" style="edgeLabel;html=1;align=center;verticalAlign=middle;resizable=0;points=[];fontFamily=Inter;fontSize=17;" parent="cNhxczveaURzyfXHexgx-11" vertex="1" connectable="0">
          <mxGeometry x="-0.24" y="-1" relative="1" as="geometry">
            <mxPoint x="18" y="-1" as="offset" />
          </mxGeometry>
        </mxCell>
        <mxCell id="cNhxczveaURzyfXHexgx-15" value="" style="endArrow=classic;html=1;rounded=0;exitX=1;exitY=0.5;exitDx=0;exitDy=0;entryX=0;entryY=0.5;entryDx=0;entryDy=0;fontFamily=Inter;fontSize=17;" parent="1" source="cNhxczveaURzyfXHexgx-1" target="cNhxczveaURzyfXHexgx-17" edge="1">
          <mxGeometry width="50" height="50" relative="1" as="geometry">
            <mxPoint x="450" y="430" as="sourcePoint" />
            <mxPoint x="510" y="380" as="targetPoint" />
          </mxGeometry>
        </mxCell>
        <mxCell id="cNhxczveaURzyfXHexgx-16" value="Syngas" style="edgeLabel;html=1;align=center;verticalAlign=middle;resizable=0;points=[];fontFamily=Inter;fontSize=17;" parent="cNhxczveaURzyfXHexgx-15" vertex="1" connectable="0">
          <mxGeometry x="0.0458" relative="1" as="geometry">
            <mxPoint x="-8" as="offset" />
          </mxGeometry>
        </mxCell>
        <mxCell id="cNhxczveaURzyfXHexgx-17" value="&lt;font&gt;Gas Conditioning&lt;/font&gt;" style="rounded=1;whiteSpace=wrap;html=1;fontFamily=Inter;fontSize=17;" parent="1" vertex="1">
          <mxGeometry x="460" y="350" width="120" height="60" as="geometry" />
        </mxCell>
        <mxCell id="cNhxczveaURzyfXHexgx-18" value="CCS" style="rounded=1;whiteSpace=wrap;html=1;fontFamily=Inter;fontSize=17;" parent="1" vertex="1">
          <mxGeometry x="670" y="350" width="120" height="60" as="geometry" />
        </mxCell>
        <mxCell id="cNhxczveaURzyfXHexgx-19" value="" style="endArrow=classic;html=1;rounded=0;entryX=0;entryY=0.5;entryDx=0;entryDy=0;exitX=1;exitY=0.5;exitDx=0;exitDy=0;fontFamily=Inter;fontSize=17;" parent="1" source="cNhxczveaURzyfXHexgx-17" target="cNhxczveaURzyfXHexgx-18" edge="1">
          <mxGeometry width="50" height="50" relative="1" as="geometry">
            <mxPoint x="560" y="480" as="sourcePoint" />
            <mxPoint x="610" y="430" as="targetPoint" />
          </mxGeometry>
        </mxCell>
        <mxCell id="cNhxczveaURzyfXHexgx-20" value="Syngas" style="edgeLabel;html=1;align=center;verticalAlign=middle;resizable=0;points=[];fontFamily=Inter;fontSize=17;" parent="cNhxczveaURzyfXHexgx-19" vertex="1" connectable="0">
          <mxGeometry x="0.1492" y="1" relative="1" as="geometry">
            <mxPoint x="-7" as="offset" />
          </mxGeometry>
        </mxCell>
        <mxCell id="cNhxczveaURzyfXHexgx-21" value="" style="endArrow=classic;html=1;rounded=0;exitX=0.25;exitY=1;exitDx=0;exitDy=0;fontFamily=Inter;entryX=0.5;entryY=0;entryDx=0;entryDy=0;fontSize=17;" parent="1" source="cNhxczveaURzyfXHexgx-18" target="cNhxczveaURzyfXHexgx-23" edge="1">
          <mxGeometry width="50" height="50" relative="1" as="geometry">
            <mxPoint x="790" y="380" as="sourcePoint" />
            <mxPoint x="450" y="470" as="targetPoint" />
            <Array as="points">
              <mxPoint x="700" y="450" />
              <mxPoint x="450" y="450" />
            </Array>
          </mxGeometry>
        </mxCell>
        <mxCell id="cNhxczveaURzyfXHexgx-22" value="Syngas" style="edgeLabel;html=1;align=center;verticalAlign=middle;resizable=0;points=[];fontFamily=Inter;fontSize=17;" parent="cNhxczveaURzyfXHexgx-21" vertex="1" connectable="0">
          <mxGeometry x="-0.2127" y="-1" relative="1" as="geometry">
            <mxPoint x="-26" y="-1" as="offset" />
          </mxGeometry>
        </mxCell>
        <mxCell id="cNhxczveaURzyfXHexgx-26" style="edgeStyle=orthogonalEdgeStyle;rounded=0;orthogonalLoop=1;jettySize=auto;html=1;exitX=1;exitY=0.5;exitDx=0;exitDy=0;entryX=0;entryY=0.5;entryDx=0;entryDy=0;fontFamily=Inter;fontSize=17;" parent="1" source="cNhxczveaURzyfXHexgx-23" target="cNhxczveaURzyfXHexgx-24" edge="1">
          <mxGeometry relative="1" as="geometry" />
        </mxCell>
        <mxCell id="cNhxczveaURzyfXHexgx-27" value="Ammonia" style="edgeLabel;html=1;align=center;verticalAlign=middle;resizable=0;points=[];fontFamily=Inter;fontSize=17;" parent="cNhxczveaURzyfXHexgx-26" vertex="1" connectable="0">
          <mxGeometry x="0.0857" y="2" relative="1" as="geometry">
            <mxPoint as="offset" />
          </mxGeometry>
        </mxCell>
        <mxCell id="cNhxczveaURzyfXHexgx-23" value="Ammonia synthesis" style="rounded=1;whiteSpace=wrap;html=1;fontFamily=Inter;fontSize=17;" parent="1" vertex="1">
          <mxGeometry x="390" y="500" width="120" height="60" as="geometry" />
        </mxCell>
        <mxCell id="cNhxczveaURzyfXHexgx-24" value="&lt;p&gt;&lt;font face=&quot;Inter&quot;&gt;Urea synthesis&lt;br&gt;&lt;/font&gt;&lt;/p&gt;" style="rounded=1;whiteSpace=wrap;html=1;fontSize=17;" parent="1" vertex="1">
          <mxGeometry x="672" y="500" width="120" height="60" as="geometry" />
        </mxCell>
        <mxCell id="cNhxczveaURzyfXHexgx-28" value="" style="endArrow=classic;html=1;rounded=0;fontFamily=Inter;exitX=0.75;exitY=1;exitDx=0;exitDy=0;entryX=0.733;entryY=0;entryDx=0;entryDy=0;entryPerimeter=0;fontSize=17;" parent="1" source="cNhxczveaURzyfXHexgx-18" target="cNhxczveaURzyfXHexgx-24" edge="1">
          <mxGeometry width="50" height="50" relative="1" as="geometry">
            <mxPoint x="820" y="475" as="sourcePoint" />
            <mxPoint x="870" y="425" as="targetPoint" />
          </mxGeometry>
        </mxCell>
        <mxCell id="cNhxczveaURzyfXHexgx-29" value="CO2" style="edgeLabel;html=1;align=center;verticalAlign=middle;resizable=0;points=[];fontFamily=Inter;fontSize=17;" parent="cNhxczveaURzyfXHexgx-28" vertex="1" connectable="0">
          <mxGeometry x="-0.0917" relative="1" as="geometry">
            <mxPoint as="offset" />
          </mxGeometry>
        </mxCell>
        <mxCell id="90TJJjqbM4NIz_mi0qeg-1" style="edgeStyle=orthogonalEdgeStyle;rounded=0;orthogonalLoop=1;jettySize=auto;html=1;exitX=1;exitY=0.5;exitDx=0;exitDy=0;fontFamily=Inter;fontSize=17;" parent="1" source="cNhxczveaURzyfXHexgx-24" edge="1">
          <mxGeometry relative="1" as="geometry">
            <mxPoint x="800" y="550" as="sourcePoint" />
            <mxPoint x="960" y="530" as="targetPoint" />
          </mxGeometry>
        </mxCell>
        <mxCell id="90TJJjqbM4NIz_mi0qeg-2" value="Urea" style="edgeLabel;html=1;align=center;verticalAlign=middle;resizable=0;points=[];fontFamily=Inter;fontSize=17;" parent="90TJJjqbM4NIz_mi0qeg-1" vertex="1" connectable="0">
          <mxGeometry x="0.0857" y="2" relative="1" as="geometry">
            <mxPoint as="offset" />
          </mxGeometry>
        </mxCell>
        <mxCell id="90TJJjqbM4NIz_mi0qeg-3" style="edgeStyle=orthogonalEdgeStyle;rounded=0;orthogonalLoop=1;jettySize=auto;html=1;exitX=0.5;exitY=1;exitDx=0;exitDy=0;fontFamily=Inter;fontSize=17;" parent="1" source="cNhxczveaURzyfXHexgx-23" edge="1">
          <mxGeometry relative="1" as="geometry">
            <mxPoint x="450" y="660" as="sourcePoint" />
            <mxPoint x="450" y="650" as="targetPoint" />
          </mxGeometry>
        </mxCell>
        <mxCell id="90TJJjqbM4NIz_mi0qeg-4" value="Utilities" style="edgeLabel;html=1;align=center;verticalAlign=middle;resizable=0;points=[];fontFamily=Inter;fontSize=17;" parent="90TJJjqbM4NIz_mi0qeg-3" vertex="1" connectable="0">
          <mxGeometry x="0.0857" y="2" relative="1" as="geometry">
            <mxPoint as="offset" />
          </mxGeometry>
        </mxCell>
        <mxCell id="90TJJjqbM4NIz_mi0qeg-7" value="" style="endArrow=classic;html=1;rounded=0;entryX=0.25;entryY=1;entryDx=0;entryDy=0;fontFamily=Inter;fontSize=17;" parent="1" target="cNhxczveaURzyfXHexgx-1" edge="1">
          <mxGeometry width="50" height="50" relative="1" as="geometry">
            <mxPoint x="80" y="430" as="sourcePoint" />
            <mxPoint x="250" y="410" as="targetPoint" />
            <Array as="points">
              <mxPoint x="260" y="430" />
            </Array>
          </mxGeometry>
        </mxCell>
        <mxCell id="90TJJjqbM4NIz_mi0qeg-8" value="Steam" style="edgeLabel;html=1;align=center;verticalAlign=middle;resizable=0;points=[];fontFamily=Inter;fontSize=17;" parent="90TJJjqbM4NIz_mi0qeg-7" vertex="1" connectable="0">
          <mxGeometry x="-0.0889" y="1" relative="1" as="geometry">
            <mxPoint x="-11" y="1" as="offset" />
          </mxGeometry>
        </mxCell>
        <mxCell id="90TJJjqbM4NIz_mi0qeg-9" value="" style="endArrow=classic;html=1;rounded=0;entryX=0.5;entryY=1;entryDx=0;entryDy=0;fontFamily=Inter;fontSize=17;" parent="1" target="cNhxczveaURzyfXHexgx-1" edge="1">
          <mxGeometry width="50" height="50" relative="1" as="geometry">
            <mxPoint x="80" y="480" as="sourcePoint" />
            <mxPoint x="280" y="460" as="targetPoint" />
            <Array as="points">
              <mxPoint x="290" y="480" />
            </Array>
          </mxGeometry>
        </mxCell>
        <mxCell id="90TJJjqbM4NIz_mi0qeg-10" value="Air" style="edgeLabel;html=1;align=center;verticalAlign=middle;resizable=0;points=[];fontFamily=Inter;fontSize=17;" parent="90TJJjqbM4NIz_mi0qeg-9" vertex="1" connectable="0">
          <mxGeometry x="-0.0889" y="1" relative="1" as="geometry">
            <mxPoint x="-47" y="-1" as="offset" />
          </mxGeometry>
        </mxCell>
      </root>
    </mxGraphModel>
  </diagram>
</mxfile>
